<svg xmlns="http://www.w3.org/2000/svg" width="128" height="128" viewBox="0 0 128 128">
  <path fill="#000000" d="M64.2076194,0 C91.8107649,0 114.266667,22.4860631 114.266667,50.1261206 C114.266667,61.2467644 110.417474,72.1833369 103.430673,80.9188875 C100.06825,85.1231527 96.0137935,88.8319922 91.3748229,91.9377046 C90.3817352,92.6034942 89.2518048,93.1439586 88.1590174,93.6667993 C83.5317762,95.8834868 84.085012,98.3723648 84.161253,103.314873 C84.180802,104.560291 84.2257646,105.803751 84.2805017,107.047211 L65.8360486,107.047211 L61.4375304,107.049169 L43.9861649,107.049169 C44.0409021,105.805709 44.0858647,104.562249 44.1054137,103.316831 C44.1816546,98.374323 44.7348905,95.885445 40.1076493,93.6687575 C39.0148619,93.1439586 37.8849314,92.6054524 36.8918438,91.9396628 C32.2528732,88.8339504 28.1984168,85.1251109 24.835994,80.9208457 C17.8472373,72.1833369 14,61.2487226 14,50.1280788 C14,22.4880213 36.4559017,0 64.2076194,0 Z M43.5091701,119.348652 C43.5091701,116.550378 43.6499227,113.757978 43.794585,110.96362 L84.4720816,110.96362 C84.6186989,113.757978 84.7574966,116.550378 84.7574966,119.348652 C84.7574966,121.516385 83.003954,123.272894 80.839883,123.272894 L77.7491909,123.272894 C76.4452746,123.272894 75.3896302,124.330325 75.3896302,125.636447 C75.3896302,126.94257 74.3320309,128 73.0300695,128 L64.215439,128 L64.1333333,128 L64.0512277,128 L55.2365971,128 C53.9326808,128 52.8770365,126.94257 52.8770365,125.636447 C52.8770365,124.330325 51.8194372,123.272894 50.5174758,123.272894 L47.4267836,123.272894 C45.2627127,123.272894 43.5091701,121.516385 43.5091701,119.348652 Z"/>
</svg>
