<svg xmlns="http://www.w3.org/2000/svg" viewBox="0 0 90 88"><path d="M53.2 32.4c-4.2 4.3-6.9 10.5-9.6 16.4-2.5 5.5-5 11.2-8.8 15.7-4.9 5.7-11.2 8.6-18.7 8.6h-9C3.2 73.1 0 69.9 0 66c0-3.9 3.2-7.1 7.2-7.1h9c6.7 0 9.3-4.3 14.4-15.8 5.9-13.4 14-31.7 41.2-31.7V.3L90 18.5 71.8 36.8V25.7c-8.2 0-14.1 2.1-18.6 6.7zm18.6 29.9v-11L90 69.5 71.8 87.7V76.6c-15.7 0-25.1-6.1-31.3-13.9 2.5-4 4.4-8.3 6.3-12.5.3-.8.7-1.5 1-2.3 1.5 2.9 3.3 5.5 5.4 7.7 4.5 4.6 10.4 6.7 18.6 6.7zM7.1 29.1C3.2 29.1 0 25.9 0 22c0-3.9 3.2-7.1 7.1-7.2h9c7.6 0 13.8 2.9 18.7 8.6.5.6 1 1.2 1.4 1.8-3.5 4.8-6 10-8 14.6-3.7-7.7-6.4-10.7-12.1-10.7h-9z"/></svg>