<svg xmlns="http://www.w3.org/2000/svg" viewBox="0 0 90 96"><path d="M18 30C9.985 29.987 2.928 35.275.688 42.97c-2.24 7.696.88 15.945 7.65 20.235 6.77 4.29 15.56 3.586 21.562-1.725L54.27 75c-1.466 8.644 3.508 17.087 11.78 19.993 8.272 2.906 17.434-.57 21.696-8.232 4.262-7.66 2.385-17.28-4.447-22.774-6.832-5.496-16.63-5.27-23.2.534L35.73 51c.36-1.984.36-4.016 0-6L60.1 31.48c6.365 5.608 15.78 6.01 22.602.968 6.82-5.044 9.194-14.166 5.697-21.894C84.9 2.824 76.482-1.412 68.19.382 59.902 2.177 53.988 9.517 54 18c.006 1.006.096 2.01.27 3L29.9 34.52C26.62 31.607 22.386 30 18 30z"/></svg>