<svg xmlns="http://www.w3.org/2000/svg" viewBox="0 0 24 24">
  <path fill="#111" d="M18.444 7.153c-2.848 0-4.857 2.813-6.984 5.79-2.408 3.372-5.137 7.193-9.708 7.193H0v-3.35h1.752c2.848 0 4.856-2.81 6.984-5.79 2.408-3.37 5.137-7.192 9.708-7.192h.203v-2.7c0-.208.125-.396.318-.475.192-.08.413-.037.56.11l4.29 4.29c.247.247.247.65 0 .898l-4.29 4.29c-.098.098-.23.15-.364.15-.065 0-.132-.012-.196-.04-.192-.08-.318-.267-.318-.475v-2.7h-.202zM7.592 11.367c-1.735-2.323-3.506-4.214-5.84-4.214H0v-3.35h1.75c3.473 0 5.88 2.206 7.894 4.743-.518.675-1.01 1.365-1.49 2.037l-.562.784zm16.224 6.646c.247.247.247.65 0 .897l-4.29 4.29c-.098.098-.23.15-.364.15-.066 0-.133-.012-.197-.04-.192-.078-.318-.266-.318-.474v-2.7h-.202c-3.472 0-5.88-2.204-7.892-4.74.517-.678 1.01-1.367 1.49-2.04l.56-.783c1.736 2.323 3.507 4.214 5.84 4.214h.204v-2.7c0-.208.125-.395.318-.476.192-.078.413-.034.56.113l4.29 4.29z"/>
</svg>
